<svg xmlns="http://www.w3.org/2000/svg" viewBox="0 0 280 64" fill="none">
  <defs>
    <linearGradient id="logoLeafGrad" x1="0%" y1="0%" x2="100%" y2="100%">
      <stop offset="0%" stop-color="#34D399" />
      <stop offset="100%" stop-color="#059669" />
    </linearGradient>
    <linearGradient id="logoCircleGrad" x1="0%" y1="100%" x2="100%" y2="0%">
      <stop offset="0%" stop-color="#10B981" />
      <stop offset="100%" stop-color="#84CC16" />
    </linearGradient>
    <linearGradient id="textGrad" x1="0%" y1="0%" x2="100%" y2="0%">
      <stop offset="0%" stop-color="#064E3B" />
      <stop offset="100%" stop-color="#047857" />
    </linearGradient>
  </defs>
  
  <!-- Icon Mark -->
  <g transform="translate(4, 8)">
    <circle cx="24" cy="24" r="23" fill="#ECFDF5" stroke="#A7F3D0" stroke-width="1.5" />
    <path d="M24 8C15.16 8 8 15.16 8 24C8 28.42 9.79 32.42 12.68 35.32L9.5 38.5H18.5V29.5L15.42 32.58C13.21 30.37 11.8 27.35 11.8 24C11.8 17.26 17.26 11.8 24 11.8C28.98 11.8 33.26 14.84 35.05 19.18L38.7 17.72C36.39 12.1 30.7 8 24 8Z" fill="url(#logoCircleGrad)" />
    <path d="M24 15C24 15 19 21.5 19 27C19 30.31 21.69 33 25 33C28.31 33 31 30.31 31 27C31 20.5 24 15 24 15Z" fill="url(#logoLeafGrad)" />
    <circle cx="25" cy="25" r="3" fill="#D1FAE5" />
  </g>

  <!-- Typography -->
  <text x="64" y="34" font-family="'Outfit', 'Plus Jakarta Sans', sans-serif" font-size="24" font-weight="800" fill="url(#textGrad)" letter-spacing="-0.5">Waste<tspan fill="#10B981">To</tspan>Wealth</text>
  <text x="65" y="48" font-family="'Plus Jakarta Sans', sans-serif" font-size="9" font-weight="600" fill="#059669" letter-spacing="1.2">TRANSFORMASI LIMBAH SIRKULAR</text>
</svg>
